<svg data-noselect="" viewBox="132.16049382715553 177.32764113073668 345.67901234568893 259.2592592592667" width="800" height="600" preserveAspectRatio="none" version="1.1"
  xmlns="http://www.w3.org/2000/svg"
  xmlns:xlink="http://www.w3.org/1999/xlink" data-v-592311a8="">
  <defs data-v-592311a8=""></defs>
  <g id="background" data-noselect="" data-v-592311a8="">
    <rect fill="transparent" x="132.16049382715553" y="177.32764113073668" width="345.67901234568893" height="259.2592592592667" data-noselect=""></rect>    <!----></g>
  <g id="shape_adZjonioCz" transform="translate(225,229.17949298259) rotate(0,80,77.777777777778) scale(1,1)" filter="" data-v-592311a8="" style="opacity: 1;">
    <g data-v-592311a8="">
      <svg version="1.1" id="图层_1"
        xmlns="http://www.w3.org/2000/svg"
        xmlns:xlink="http://www.w3.org/1999/xlink" x="0px" y="0px" viewBox="0 0 75.6 73.5" style="enable-background:new 0 0 75.6 73.5;" xml:space="preserve" width="160" height="155.55555555556" class="style-removed" preserveAspectRatio="none" data-parent="shape_adZjonioCz">

        <path d="M72.8,51.1c-2.7-0.5-4.9,0.3-6.9,1.1c-2.8,1.2-4.9,3.1-6.7,4.2c-1.4-0.7-2.6-1.8-3.8-3.2
	c-2.3-2.8-4.5-4.2-6.6-4.4c-2.2-0.1-4.6,1.1-7.4,3.8c-1.3,1.2-2.5,2.7-3.6,3.4c-0.1,0-0.1,0.1-0.2,0.1c-4.3,2.8-7.6,2.6-7.7,2.5
	c-0.2-0.1-0.6-0.2-0.4-0.5c0.1-0.3,0.5-0.3,0.6-0.3c0,0,3.1,0.3,7.3-2.4c-0.7-0.9-3.3-3.1-6.9-2.9c-3.9,0.2-8.5,4.6-8.9,5
	c-0.4,0.4-0.8,0-0.5-0.4c0,0,1.3-1.2,2.3-2c-0.1,0-0.2,0-0.2,0c-5.1-0.4-8.7,1.5-11.8,5.1c-0.7-0.5-0.9-0.8-1.5-1.5
	c-5.4-6.9-8.2-15.8-7.4-24.6C3.2,24,8.6,14.3,16.9,8.4c4.1-3,8.9-5.1,13.9-6.1c5-1,10.2-0.9,15.2,0.3C56,5,64.8,12,69.4,21.1
	c0.1,0.3,0.5,0.4,0.8,0.3c0.3-0.1,0.4-0.5,0.3-0.8C65.8,11.1,56.8,3.7,46.4,1.1c-5.2-1.3-10.6-1.5-15.9-0.5
	c-5.3,1-10.3,3.1-14.7,6.2C6.9,12.9,1.1,23.2,0.2,33.9c-0.8,7.5,0.9,15.2,4.6,21.8C4.9,55.8,4.9,56,5,56.1
	c7.8,13.4,24.4,19.5,39.3,16.8c4.3-0.8,8.5-2.3,12.3-4.5c2.6-1.5,5-3.2,7.2-5.3c2.2-2.1,3.9-4.8,6.3-6.7c1.5-1.3,2.8-2.1,5.5-1.6
	C75.6,54.8,75.5,51.6,72.8,51.1z" fill="#4e6e51" stroke-width="0"></path>
      </svg>
    </g>
  </g>
  <g id="shape_mXez3yB7lD" transform="translate(198.19560051387998,63.32585653966004) rotate(0,104.94,235.76) scale(1,1)" filter="" data-v-592311a8="" style="opacity: 1;">
    <g data-v-592311a8="">
      <svg xmlns="http://www.w3.org/2000/svg" version="1.1"
        xmlns:xlink="http://www.w3.org/1999/xlink" width="340.76" height="471.52" viewBox="0 0 340.76 471.52" data-parent="shape_mXez3yB7lD">
        <g data-width="78.52799999999999" transform="translate(65.44, 0)">
          <path d="M10.60-5.17Q10.27-5.04 10.60-4.71L10.60-4.71Q10.67-4.58 10.83-4.45Q10.99-4.32 11.12-4.06L11.12-4.06Q11.12-3.86 11.52-3.60L11.52-3.60L12.76-2.68Q13.35-1.83 13.81-1.57L13.81-1.57L14.07-1.37Q14.27-1.05 14.63-0.82Q14.99-0.59 15.18-0.46L15.18-0.46Q15.38-0.39 15.57-0.46L15.57-0.46Q15.64-0.52 15.84-0.52L15.84-0.52L16.36-0.20Q16.88 0 17.21-0.20L17.21-0.20Q17.28-0.26 17.51-0.39Q17.73-0.52 18.00-0.46L18.00-0.46L18.13-0.46L19.76-0.79Q20.42-0.79 21.04-0.72Q21.66-0.65 22.32-0.65L22.32-0.65Q22.58-0.65 22.81-0.72Q23.03-0.79 23.30-0.79L23.30-0.79L24.61-0.79Q24.93-0.85 25.69-1.01Q26.44-1.18 27.09-1.05L27.09-1.05Q27.55-0.98 27.91-1.01Q28.27-1.05 28.53-1.05L28.53-1.05L29.38-0.98L29.91-0.98Q30.17-0.92 30.69-0.92L30.69-0.92Q31.02-0.92 31.21-0.98L31.21-0.98Q31.80-1.05 32.20-1.24L32.20-1.24Q32.26-1.24 32.36-1.21Q32.46-1.18 32.52-1.24L32.52-1.24Q32.79-1.31 33.28-1.41Q33.77-1.51 34.03-1.51L34.03-1.51Q34.23-1.51 34.49-1.67Q34.75-1.83 34.94-1.90L34.94-1.90Q34.81-1.96 34.65-2.06Q34.49-2.16 34.29-2.22L34.29-2.22Q33.96-2.36 34.09-2.75L34.09-2.75Q34.16-2.88 34.55-3.14L34.55-3.14L35.66-3.34Q35.40-3.66 35.73-3.86L35.73-3.86Q35.99-4.12 35.80-4.38L35.80-4.38L35.60-4.65Q35.53-4.71 35.44-4.88Q35.34-5.04 35.34-5.17L35.34-5.17Q35.34-5.24 35.44-5.30Q35.53-5.37 35.66-5.37L35.66-5.37Q35.80-5.56 35.73-5.76L35.73-5.76Q35.53-6.02 34.94-6.15L34.94-6.15Q34.16-6.28 33.90-6.41L33.90-6.41Q33.11-6.61 33.05-6.61L33.05-6.61L32.92-6.61Q31.74-6.61 31.08-6.67L31.08-6.67L29.32-6.67L27.55-6.74L26.63-6.67Q26.44-6.67 26.18-6.71Q25.91-6.74 25.59-6.67L25.59-6.67L23.62-6.48Q23.03-6.41 22.61-6.28Q22.18-6.15 21.86-6.09L21.86-6.09Q20.55-5.96 19.76-5.82L19.76-5.82L17.47-5.56Q17.08-5.50 16.72-5.40Q16.36-5.30 15.97-5.24L15.97-5.24Q15.71-5.24 15.61-5.30Q15.51-5.37 15.44-5.69L15.44-5.69L15.44-6.74L15.51-7.66L15.51-8.11L15.51-8.97L15.57-9.69L15.57-12.30L15.57-15.31L15.57-16.29L15.64-18.26Q15.57-18.65 15.61-19.04Q15.64-19.44 15.57-19.89L15.57-19.89L15.57-21.33Q15.57-23.89 15.64-25.26L15.64-25.26L15.77-28.27L15.84-30.56L15.84-31.35Q15.90-31.67 15.90-32.52L15.90-32.52L15.90-32.72L15.97-34.16Q15.97-35.60 16.03-36.32L16.03-36.32L15.97-37.10Q15.97-38.41 15.90-39.00L15.90-39.00Q15.90-39.66 15.77-40.97L15.77-40.97Q15.71-41.42 15.44-42.47L15.44-42.47Q15.31-42.99 15.05-43.65Q14.79-44.30 14.72-44.76L14.72-44.76L14.59-45.55Q14.59-45.87 14.33-45.94L14.33-45.94Q13.74-46.33 13.68-46.40L13.68-46.40Q13.55-46.53 13.28-46.46L13.28-46.46Q13.09-46.27 13.22-46.07L13.22-46.07Q13.22-45.94 13.32-45.68Q13.42-45.42 13.28-45.15L13.28-45.15Q13.22-45.22 13.12-45.28Q13.02-45.35 12.96-45.48L12.96-45.48Q12.83-45.61 12.56-45.61L12.56-45.61Q12.17-45.55 11.58-45.55L11.58-45.55Q11.12-45.55 10.93-45.48L10.93-45.48Q10.80-45.48 10.67-45.28L10.67-45.28Q10.27-45.02 10.01-44.70L10.01-44.70L10.14-44.63Q10.08-44.50 10.08-44.17L10.08-44.17Q10.08-44.04 10.05-43.81Q10.01-43.58 10.08-43.52L10.08-43.52Q10.27-42.99 10.14-42.67L10.14-42.67Q10.01-42.47 10.01-42.21L10.01-42.21L9.88-41.36L9.69-39.66Q9.62-39.59 9.65-39.56Q9.69-39.53 9.69-39.46L9.69-39.46Q9.69-39.20 9.62-39.13L9.62-39.13L9.49-38.48Q9.75-38.41 9.75-38.28Q9.75-38.15 9.69-37.96L9.69-37.96Q9.62-37.76 9.62-37.50L9.62-37.50L9.62-37.17L9.62-36.71Q9.49-36.38 9.55-36.12L9.55-36.12Q9.55-35.80 9.49-35.73L9.49-35.73Q9.49-35.66 9.29-35.08L9.29-35.08Q9.16-34.68 9.16-34.62L9.16-34.62Q9.16-34.55 9.36-33.77L9.36-33.77Q9.62-33.31 9.62-32.79L9.62-32.79Q9.62-32.46 9.55-32.26L9.55-32.26L9.49-32.00L9.49-31.15Q9.36-30.89 9.36-30.36L9.36-30.36Q9.36-30.23 9.39-30.10Q9.42-29.97 9.23-29.91L9.23-29.91Q9.10-29.91 9.06-29.81Q9.03-29.71 9.10-29.58L9.10-29.58Q9.10-29.45 9.13-29.28Q9.16-29.12 9.36-29.06L9.36-29.06Q9.49-28.99 9.49-28.86L9.49-28.86Q9.49-28.14 9.36-27.75L9.36-27.75Q9.23-27.68 9.19-27.48Q9.16-27.29 9.16-27.22L9.16-27.22Q9.10-26.76 9.36-26.70L9.36-26.70Q9.29-26.50 9.29-26.24L9.29-26.24L9.23-25.33L9.23-24.87Q9.23-24.74 9.26-24.41Q9.29-24.08 9.16-23.82L9.16-23.82Q9.10-23.62 9.16-23.43L9.16-23.43L9.16-22.90Q9.16-22.45 9.03-22.18L9.03-22.18Q8.83-21.79 9.23-21.73L9.23-21.73Q9.49-21.66 9.49-21.56Q9.49-21.46 9.36-21.27L9.36-21.27L9.36-21.20Q9.42-21.07 9.42-20.88L9.42-20.88Q9.42-20.55 9.16-20.35L9.16-20.35L9.16-20.16Q9.23-20.02 9.16-19.73Q9.10-19.44 9.23-19.30L9.23-19.30Q9.10-19.17 9.10-18.91L9.10-18.91L9.16-18.32L9.10-18.06Q8.90-17.93 9.03-17.83Q9.16-17.73 9.16-17.73L9.16-17.73L9.55-17.47L9.55-17.34L9.29-17.34Q8.97-17.21 8.97-17.08L8.97-17.08L8.97-16.75Q8.97-16.10 9.36-15.97L9.36-15.97Q9.55-15.90 9.55-15.44L9.55-15.44Q9.62-15.18 9.29-15.18L9.29-15.18Q9.16-15.18 9.16-15.05L9.16-15.05L9.10-14.20Q9.16-14.00 9.16-13.68L9.16-13.68Q9.16-13.15 9.10-12.89L9.10-12.89L9.10-12.30Q9.23-11.78 9.23-11.58L9.23-11.58L9.23-10.99Q9.36-10.08 9.36-9.69L9.36-9.69Q9.69-9.49 9.75-9.29L9.75-9.29Q9.88-9.10 9.88-8.77Q9.88-8.44 9.88-8.38L9.88-8.38Q9.82-8.31 9.85-8.25Q9.88-8.18 9.88-8.11L9.88-8.11Q10.01-8.05 10.01-7.92Q10.01-7.79 9.95-7.72L9.95-7.72Q9.82-7.59 9.88-7.36Q9.95-7.13 9.95-7.07L9.95-7.07L10.01-6.61Q10.01-6.54 10.08-6.31Q10.14-6.09 10.34-5.96L10.34-5.96Q10.34-5.89 10.34-5.79Q10.34-5.69 10.27-5.69L10.27-5.69Q10.21-5.50 10.34-5.37L10.34-5.37L10.60-5.17Z" transform="translate(0 261.76) " fill="#4e6e51" stroke="#4e6e51" stroke-width="0.109" data-glyph-w="39.263999999999996" data-glyph-h="78.52799999999999" data-glyph-ascender="65.44" data-glyph-descender="-13.088"></path>
          <path d="M19.17-33.83L19.17-32.72Q19.17-31.54 19.04-29.19L19.04-29.19Q19.04-27.81 18.98-27.16L18.98-27.16L18.91-25.98Q18.98-24.93 18.98-22.97L18.98-22.97Q19.04-21.99 19.04-20.22L19.04-20.22L19.04-18.19L18.98-15.71Q18.91-14.53 18.94-13.64Q18.98-12.76 18.98-12.24L18.98-12.24L18.91-11.12L18.91-8.31Q18.91-7.46 18.85-7.00L18.85-7.00L18.78-6.09L18.78-4.38L18.72-2.22Q18.72-1.70 18.85-0.65L18.85-0.65Q18.91-0.20 18.91 0.98L18.91 0.98Q18.91 1.05 18.98 1.11Q19.04 1.18 19.11 1.18L19.11 1.18Q19.30 1.05 19.37 1.21Q19.44 1.37 19.44 1.44L19.44 1.44Q19.70 1.96 19.96 1.77L19.96 1.77Q20.29 1.64 20.42 1.90L20.42 1.90Q20.55 2.42 20.55 2.62L20.55 2.62Q20.55 2.55 20.68 3.21L20.68 3.21L20.74 3.21Q20.74 2.68 20.81 2.55L20.81 2.55Q20.88 2.42 20.94 2.36Q21.01 2.29 21.07 2.22L21.07 2.22L21.27 2.55L21.27 2.68L21.33 2.68Q21.60 2.68 21.60 3.01Q21.60 3.34 21.66 3.47L21.66 3.47Q21.66 3.08 21.73 2.88L21.73 2.88Q21.73 2.62 21.86 2.62L21.86 2.62Q22.25 2.62 22.45 2.68L22.45 2.68L22.58 2.68Q23.23 2.68 23.36 1.77L23.36 1.77Q23.36 1.18 23.43 0.98L23.43 0.98Q23.82-0.07 23.69-1.51L23.69-1.51Q23.69-2.29 23.75-2.62L23.75-2.62L23.82-4.84Q23.82-5.69 23.69-7.26L23.69-7.26Q23.69-8.97 23.75-9.95L23.75-9.95Q23.75-10.47 23.82-10.96Q23.89-11.45 23.89-11.98L23.89-11.98Q23.95-12.83 23.95-14.53L23.95-14.53Q24.02-15.05 24.02-16.10L24.02-16.10Q24.02-16.69 23.89-17.87L23.89-17.87Q23.75-19.44 23.82-20.35L23.82-20.35L23.82-20.81L23.75-22.71L23.69-23.75Q23.69-25.33 23.82-27.94L23.82-27.94Q23.82-28.34 23.79-28.89Q23.75-29.45 23.82-30.30L23.82-30.30L24.08-32.33L24.21-34.09Q24.21-34.29 24.41-34.29L24.41-34.29L25.00-34.29Q26.24-34.29 26.90-34.23L26.90-34.23L27.62-34.29Q27.94-34.29 28.07-34.09L28.07-34.09L28.14-34.09Q28.47-34.09 28.79-34.03Q29.12-33.96 29.45-33.96L29.45-33.96Q29.71-33.96 29.84-34.09L29.84-34.09Q30.04-34.29 30.33-34.29Q30.63-34.29 30.76-34.29L30.76-34.29L30.95-34.29L31.80-34.23Q32.79-34.23 33.24-34.09L33.24-34.09L33.44-34.16L33.77-34.16L34.16-34.09Q34.49-33.90 34.75-33.90L34.75-33.90Q35.01-33.90 35.24-33.96Q35.47-34.03 35.66-34.09L35.66-34.09L36.19-34.09Q36.65-34.09 36.91-34.36L36.91-34.36Q37.04-34.36 37.10-34.49L37.10-34.49L37.43-34.75Q37.43-34.75 37.30-35.40L37.30-35.40Q37.24-35.47 37.24-35.57Q37.24-35.66 37.17-35.73L37.17-35.73L37.43-35.80Q37.56-35.93 37.63-35.93L37.63-35.93Q37.63-36.19 37.50-36.32L37.50-36.32Q37.50-36.32 37.37-36.52Q37.24-36.71 37.37-36.97L37.37-36.97Q37.63-37.37 37.69-37.63L37.69-37.63L37.82-37.82Q37.89-37.96 37.89-38.15L37.89-38.15Q37.89-38.54 37.63-38.61L37.63-38.61Q37.30-38.68 37.27-38.81Q37.24-38.94 37.37-39.26L37.37-39.26L37.37-39.59L37.37-39.79Q37.37-40.25 37.69-40.44L37.69-40.44Q37.89-40.44 38.02-40.51L38.02-40.51Q38.09-40.51 38.15-40.61Q38.22-40.70 38.15-40.77L38.15-40.77Q38.15-41.42 37.76-41.62L37.76-41.62L37.82-42.01L37.63-42.27Q37.04-43.12 36.25-43.19L36.25-43.19Q34.81-43.58 33.77-43.71L33.77-43.71Q32.07-44.11 31.21-44.17L31.21-44.17Q30.17-44.37 28.14-44.37L28.14-44.37L23.89-44.37Q22.51-44.17 21.40-44.17L21.40-44.17Q19.30-44.04 18.26-43.91L18.26-43.91Q17.28-43.78 15.44-43.65L15.44-43.65Q14.33-43.65 13.74-43.58L13.74-43.58Q13.02-43.58 12.37-43.48Q11.71-43.39 11.06-43.39L11.06-43.39L8.57-43.12Q8.18-43.12 7.79-43.06Q7.39-42.99 7.07-42.99L7.07-42.99L5.56-42.93L5.30-42.93Q5.04-42.99 4.45-42.99L4.45-42.99Q4.38-43.06 4.19-43.19L4.19-43.19L3.99-43.65Q3.86-44.11 3.47-44.04L3.47-44.04L2.75-43.58Q2.49-43.45 2.42-43.06Q2.36-42.67 2.55-42.41L2.55-42.41Q2.88-42.08 3.01-41.29L3.01-41.29Q3.01-41.03 2.94-40.90L2.94-40.90Q3.01-40.77 3.01-40.51L3.01-40.51L3.01-39.59Q3.01-39.39 3.21-38.61L3.21-38.61Q3.34-38.15 3.63-37.82Q3.93-37.50 4.32-37.24L4.32-37.24L4.84-36.97Q4.91-36.91 4.91-36.81Q4.91-36.71 4.97-36.65L4.97-36.65Q5.10-36.06 5.50-35.93L5.50-35.93Q5.63-35.80 5.63-35.80L5.63-35.80L5.76-35.08Q5.76-34.94 5.89-34.94L5.89-34.94Q6.28-34.75 6.48-34.23L6.48-34.23L6.54-34.09Q6.74-33.96 6.94-33.80Q7.13-33.64 7.39-33.44L7.39-33.44Q7.53-33.83 7.89-33.93Q8.25-34.03 8.51-33.70L8.51-33.70Q8.51-33.77 8.61-33.96Q8.70-34.16 8.77-34.16L8.77-34.16Q9.49-34.55 10.08-34.36L10.08-34.36L12.17-34.16L13.22-34.16Q14.40-34.16 15.90-33.96L15.90-33.96Q17.01-33.96 17.54-33.90L17.54-33.90L19.17-33.83Z" transform="translate(39.263999999999996 261.76) " fill="#4e6e51" stroke="#4e6e51" stroke-width="0.109" data-glyph-w="39.263999999999996" data-glyph-h="78.52799999999999" data-glyph-ascender="65.44" data-glyph-descender="-13.088"></path>
        </g>
      </svg>
    </g>
  </g>
</svg>